<?xml version="1.0" encoding="utf-8"?>
<!-- Generator: Adobe Illustrator 28.0.0, SVG Export Plug-In . SVG Version: 6.00 Build 0)  -->
<svg version="1.1"
	 id="svg23" xmlns:sodipodi="http://sodipodi.sourceforge.net/DTD/sodipodi-0.dtd" xmlns:svg="http://www.w3.org/2000/svg" xmlns:inkscape="http://www.inkscape.org/namespaces/inkscape"
	 xmlns="http://www.w3.org/2000/svg" xmlns:xlink="http://www.w3.org/1999/xlink" x="0px" y="0px" viewBox="0 0 308.8 304.9"
	 style="enable-background:new 0 0 308.8 304.9;" xml:space="preserve">
<style type="text/css">
	.st0{fill:#F389B8;}
	.st1{display:none;}
	.st2{display:inline;fill:#B1C6C1;}
	.st3{display:inline;fill:#556762;}
	.st4{display:inline;fill:#677570;}
	.st5{display:inline;fill:#708274;}
	.st6{display:inline;fill:#83948B;}
	.st7{display:inline;fill:#E5A3B7;}
	.st8{display:inline;fill:url(#SVGID_1_);}
	.st9{display:inline;fill:url(#SVGID_00000142868267672551197880000016132343094576423097_);}
	.st10{display:inline;fill:#F7F2EF;}
	.st11{fill:#1C1B1E;}
	.st12{fill:#E16399;}
	.st13{fill:#BD3671;}
	.st14{fill:#C97E8A;}
	.st15{fill:url(#SVGID_00000005243831851492791280000007549479008945614733_);}
	.st16{fill:url(#SVGID_00000007396479538459206460000016293613438745333148_);}
	.st17{fill:url(#SVGID_00000001653589230145249150000007942036618425560968_);}
	.st18{fill:url(#SVGID_00000028282610666967488720000002751023221281724320_);}
	.st19{fill:#913247;}
	.st20{fill:#AD3A5C;}
	.st21{fill:url(#SVGID_00000018935609145590493350000004632525141401591961_);}
	.st22{fill:#851530;}
	.st23{fill:#B8194B;}
	.st24{fill:#30171B;}
	.st25{fill:#C95763;}
	.st26{fill:#6B1D24;}
	.st27{fill:#D86672;}
	.st28{fill:#4E141C;}
	.st29{fill:url(#SVGID_00000103257139969013808310000007842373859058398124_);}
	.st30{fill:#382E29;}
	.st31{fill:#F7CDD0;}
</style>
<sodipodi:namedview  bordercolor="#000000" borderopacity="0.25" id="namedview25" inkscape:deskcolor="#d1d1d1" inkscape:pagecheckerboard="0" inkscape:pageopacity="0.0" inkscape:showpageshadow="2" pagecolor="#ffffff">
	</sodipodi:namedview>
<circle class="st0" cx="154.8" cy="153.3" r="139.4"/>
<g>
	<g id="Background_00000131361884314215858900000016932399343004621963_" class="st1">
		<path class="st2" d="M13,9.5c3.4,0,3.4,0,6.7,0c1,0,2,0,3,0c4.3,0,4.3,0,8.6,0c0.4,0,0.8,0,1.1,0c2.4,0,2.4,0,4.8,0
			c0.4,0,0.8,0,1.1,0c1.9,0,1.9,0,3.9,0c0.9,0,1.9,0,2.8,0s0.9,0,1.6,0c1.9,0,3.9,0,5.8,0c0.3,0,0.5,0,0.9,0c1.3,0,2.4,0,3.7,0
			s1.3,0,2.5,0c0.5,0,0.9,0,1.4,0c0.3,0,0.5,0,0.9,0c1.3,0,2.4,0,3.7,0c1.5,0,1.5,0,3,0c0.1,0,0.1,0,0.3,0c1,0,1,0,1.9,0
			c1.1,0,2.3,0,3.4,0c0.4,0,0.8,0,1.1,0c0.9,0,1.6,0,2.5,0s0.9,0,1.6,0c0.6,0,1.3,0,1.9,0c1.1,0,1.1,0,2.3,0c0.3,0,0.5,0,0.9,0
			c1.3,0,1.3,0,2.5,0c0.3,0,0.5,0,0.9,0c1.1,0,1.1,0,2.3,0c0.4,0,0.8,0,1.1,0s0.8,0,1.1,0c1.3,0,2.7,0,3.9,0c8.5,0,8.5,0,17.1,0
			c0.4,0,0.8,0,1.1,0c13.9,0,13.9,0,27.9,0c0.1,0,0.1,0,0.3,0c0.9,0,0.9,0,1.6,0s1.5,0,2.3,0c1.3,0,1.3,0,2.5,0c0.4,0,0.8,0,1.1,0
			c0.9,0,0.9,0,1.6,0c0.4,0,0.4,0,0.9,0c0.8,0,0.8,0,1.4,0c0.9,0,1.6,0,2.5,0c0.8,0,0.8,0,1.4,0c0.5,0,0.9,0,1.4,0
			c2.7,0,2.7,0,5.3,0c0.1,0,0.1,0,0.3,0c4.9,0,4.9,0,9.7,0c0.1,0,0.1,0,0.3,0c0.8,0,0.8,0,1.4,0c0.5,0,0.9,0,1.4,0
			c1.1,0,1.1,0,2.3,0c0.4,0,0.8,0,1.1,0c0.8,0,0.8,0,1.4,0c0.4,0,0.8,0,1.1,0c0.4,0,0.8,0,1.1,0c2.7,0,5.2,0,7.8,0
			c0.3,0,0.5,0,0.9,0c0.3,0,0.5,0,0.9,0c0.3,0,0.5,0,0.9,0c0.9,0,1.6,0,2.5,0c0.3,0,0.5,0,0.9,0c2.5,0,5.1,0,7.6,0c1.5,0,1.5,0,3,0
			c0.5,0,1.1,0,1.6,0c0.9,0,0.9,0,1.6,0c0.4,0,0.8,0,1.1,0c1.4,0,1.4,0,2.8,0c0.3,0,0.5,0,0.9,0c0.8,0,0.8,0,1.4,0c1,0,2,0,3,0
			c2.7,0,2.7,0,5.3,0c0.1,0,0.4,0,0.5,0c0.9,0,0.9,0,1.6,0c1.3,0,2.4,0,3.7,0c0.8,0,0.8,0,1.4,0c2.1,0,4.3,0,6.4,0
			c0.3,0,0.5,0,0.9,0c4.8,0,9.5,0,14.3,0c4.6,0,4.6,0,9.2,0c0.1,0,0.1,0,0.3,0c5.3,0,5.3,0,10.6,0c1.4,0,2.8,0,4.2,0
			c0.3,0,0.5,0,0.9,0c0.1,0,0.4,0,0.5,0c1.8,0,1.8,0,3.7,0c0.1,0,0.1,0,0.3,0c1.1,0,1.1,0,2.3,0c0.3,0,0.5,0,0.9,0
			c0.3,0,0.6,0,0.9,0c0.5,0,1.1,0,1.6,0c0.4,0,0.8,0,1.1,0c0.9,0,2-0.1,2.8,0c0.5,0.4,0.5,0.4,1.1,0.9c0,0.1,0,0.4,0,0.5
			c0,141.7,0,141.7,0,283.4c0,0.1,0,0.3,0,0.3c-0.4,0.4-0.4,0.4-0.9,0.9c-1.1,0-2.3,0-3.4,0c-2.3,0-2.3,0-4.4,0c-0.1,0-0.1,0-0.3,0
			c-1.1,0-1.1,0-2.3,0c-0.1,0-0.1,0-0.3,0c-2.7,0-2.7,0-5.3,0c-0.3,0-0.5,0-0.9,0c-0.4,0-0.8,0-1.1,0c-0.4,0-0.8,0-1.1,0
			c-0.4,0-0.8,0-1.1,0c-0.1,0-0.4,0-0.5,0c-7,0-7,0-13.9,0c-1.5,0-3,0-4.4,0c-1.3,0-1.3,0-2.5,0c-0.8,0-1.5,0-2.3,0
			c-2.5,0-2.5,0-5.1,0c-0.5,0-0.9,0-1.4,0c-1,0-1,0-1.9,0c-0.1,0-0.4,0-0.5,0c-0.9,0-0.9,0-1.6,0c-0.1,0-0.4,0-0.5,0
			c-0.9,0-0.9,0-1.6,0c-0.1,0-0.4,0-0.5,0c-4,0-4,0-8.1,0c-0.3,0-0.5,0-0.9,0c-1.8,0-1.8,0-3.7,0c-0.3,0-0.5,0-0.9,0
			c-5.2,0-5.2,0-10.4,0c-0.1,0-0.4,0-0.5,0c-1.1,0-1.1,0-2.3,0c-0.1,0-0.1,0-0.3,0c-1.8,0-1.8,0-3.7,0c-0.3,0-0.5,0-0.9,0
			c-43.2,0-43.2,0-86.6,0c-0.1,0-0.1,0-0.3,0c-54.9-0.1-54.9-0.1-109.7-0.3c0-142.5,0-142.5,0-284.9c0.4-0.4,0.4-0.4,0.9-0.9
			C11.2,9.3,12.2,9.6,13,9.5z"/>
		<path class="st3" d="M295.9,294.4c0-141.7,0-141.7,0-283.4C295.9,152.7,295.9,152.7,295.9,294.4z"/>
		<path class="st4" d="M119.6,295.5c-36.5,0-73.2,0.3-109.7-0.3C64.8,295.4,64.8,295.4,119.6,295.5z"/>
		<path class="st4" d="M206.5,295.5c-28.8,0-57.8,0-86.6,0C163.2,295.5,163.2,295.5,206.5,295.5z"/>
		<path class="st4" d="M142.3,9.5c-13.9,0-13.9,0-27.9,0C123.7,9.5,132.9,9.5,142.3,9.5z"/>
		<path class="st4" d="M113.2,9.5c-8.5,0-8.5,0-17.1,0C101.8,9.5,107.5,9.5,113.2,9.5z"/>
		<path class="st4" d="M274.4,295.5c-4.7,0-9.4,0-13.9,0C267.4,295.5,267.4,295.5,274.4,295.5z"/>
		<path class="st5" d="M275.8,9.5c-5.3,0-5.3,0-10.6,0C268.7,9.5,272.2,9.5,275.8,9.5z"/>
		<path class="st4" d="M224.3,295.5c-3.4,0-6.8,0-10.4,0C219.2,295.5,219.2,295.5,224.3,295.5z"/>
		<path class="st5" d="M174.6,9.5c-4.9,0-4.9,0-9.7,0C168.2,9.5,171.3,9.5,174.6,9.5z"/>
		<path class="st5" d="M264.9,9.5c-4.6,0-4.6,0-9.2,0C258.7,9.5,261.7,9.5,264.9,9.5z"/>
		<path class="st4" d="M31.4,9.5c-4.3,0-4.3,0-8.6,0C25.6,9.5,28.5,9.5,31.4,9.5z"/>
		<path class="st4" d="M237.7,295.5c-2.7,0-5.4,0-8.1,0C233.7,295.5,233.7,295.5,237.7,295.5z"/>
		<path class="st3" d="M19.7,9.5c-3.4,0-3.4,0-6.7,0C15.2,9.5,17.4,9.5,19.7,9.5z"/>
		<path class="st4" d="M226.8,9.5c-2.7,0-2.7,0-5.3,0C223.3,9.5,225.1,9.5,226.8,9.5z"/>
		<path class="st4" d="M164.6,9.5c-2.7,0-2.7,0-5.3,0C161.1,9.5,162.9,9.5,164.6,9.5z"/>
		<path class="st4" d="M284.3,295.5c-1.8,0-3.5,0-5.3,0C281.7,295.5,281.7,295.5,284.3,295.5z"/>
		<path class="st4" d="M251.2,295.5c-1.6,0-3.4,0-5.1,0C248.7,295.5,248.7,295.5,251.2,295.5z"/>
		<path class="st4" d="M37.2,9.5c-2.4,0-2.4,0-4.8,0C34.1,9.5,35.7,9.5,37.2,9.5z"/>
		<path class="st4" d="M291.7,295.5c-1.5,0-3,0-4.4,0C289.4,295.5,289.4,295.5,291.7,295.5z"/>
		<path class="st4" d="M42.3,9.5c-1.9,0-1.9,0-3.9,0C39.6,9.5,41,9.5,42.3,9.5z"/>
		<path class="st4" d="M285,9.5c-1.8,0-1.8,0-3.7,0C282.6,9.5,283.7,9.5,285,9.5z"/>
		<path class="st4" d="M210.9,295.5c-1.3,0-2.4,0-3.7,0C209.1,295.5,209.1,295.5,210.9,295.5z"/>
		<path class="st4" d="M228.9,295.5c-1.3,0-2.4,0-3.7,0C227,295.5,227,295.5,228.9,295.5z"/>
		<path class="st5" d="M209,9.5c-1.5,0-1.5,0-3,0C207,9.5,208,9.5,209,9.5z"/>
		<path class="st4" d="M68.6,9.5c-1.5,0-1.5,0-3,0C66.4,9.5,67.6,9.5,68.6,9.5z"/>
		<path class="st5" d="M216.2,9.5c-1.4,0-1.4,0-2.8,0C214.4,9.5,215.3,9.5,216.2,9.5z"/>
		<path class="st5" d="M59.6,9.5c-1.3,0-1.3,0-2.5,0C58,9.5,58.7,9.5,59.6,9.5z"/>
		<path class="st4" d="M255.9,295.5c-0.9,0-1.6,0-2.5,0C254.6,295.5,254.6,295.5,255.9,295.5z"/>
		<path class="st5" d="M86.9,9.5c-1.3,0-1.3,0-2.5,0C85.3,9.5,86.1,9.5,86.9,9.5z"/>
		<path class="st4" d="M149,9.5c-1.3,0-1.3,0-2.5,0C147.3,9.5,148.1,9.5,149,9.5z"/>
		<path class="st4" d="M213.4,295.5c-0.8,0-1.5,0-2.3,0C212.3,295.5,212.3,295.5,213.4,295.5z"/>
		<path class="st4" d="M286.9,295.5c-0.8,0-1.5,0-2.3,0C285.7,295.5,285.7,295.5,286.9,295.5z"/>
		<path class="st5" d="M179.9,9.5c-1.1,0-1.1,0-2.3,0C178.4,9.5,179.2,9.5,179.9,9.5z"/>
		<path class="st4" d="M90.1,9.5c-1.1,0-1.1,0-2.3,0C88.5,9.5,89.3,9.5,90.1,9.5z"/>
		<path class="st5" d="M83.6,9.5c-1.1,0-1.1,0-2.3,0C82.1,9.5,82.9,9.5,83.6,9.5z"/>
		<path class="st4" d="M287.5,9.5c-1.1,0-1.1,0-2.3,0C286,9.5,286.7,9.5,287.5,9.5z"/>
		<path class="st4" d="M244.8,295.5c-0.6,0-1.3,0-1.9,0C243.8,295.5,243.8,295.5,244.8,295.5z"/>
		<path class="st4" d="M70.7,9.5c-1,0-1,0-1.9,0C69.5,9.5,70.1,9.5,70.7,9.5z"/>
		<path class="st4" d="M144.2,9.5c-0.9,0-0.9,0-1.6,0C143.2,9.5,143.7,9.5,144.2,9.5z"/>
		<path class="st4" d="M229.1,9.5c-0.9,0-0.9,0-1.6,0C228,9.5,228.6,9.5,229.1,9.5z"/>
		<path class="st5" d="M212.3,9.5c-0.9,0-0.9,0-1.6,0C211.3,9.5,211.8,9.5,212.3,9.5z"/>
		<path class="st6" d="M294.7,9.5c0.4,0,0.8,0,1.1,0c0,0.3,0,0.6,0,0.9C295.3,10,295.3,10,294.7,9.5z"/>
		<path class="st4" d="M79.4,9.5c-0.9,0-0.9,0-1.6,0C78.3,9.5,78.8,9.5,79.4,9.5z"/>
		<path class="st4" d="M151.7,9.5c-0.9,0-0.9,0-1.6,0C150.6,9.5,151.2,9.5,151.7,9.5z"/>
		<path class="st4" d="M46.7,9.5c-0.9,0-0.9,0-1.6,0C45.6,9.5,46.2,9.5,46.7,9.5z"/>
		<path class="st4" d="M240,295.5c-0.5,0-1.1,0-1.6,0C239.2,295.5,239.2,295.5,240,295.5z"/>
		<path class="st4" d="M242.3,295.5c-0.5,0-1.1,0-1.6,0C241.4,295.5,241.4,295.5,242.3,295.5z"/>
		<path class="st4" d="M234.2,9.5c-0.8,0-0.8,0-1.4,0C233.2,9.5,233.7,9.5,234.2,9.5z"/>
		<path class="st5" d="M218.5,9.5c-0.8,0-0.8,0-1.4,0C217.6,9.5,218,9.5,218.5,9.5z"/>
		<path class="st6" d="M10.7,9.5c-0.4,0.4-0.4,0.4-0.9,0.9c0-0.4,0-0.4,0-0.9C10.2,9.5,10.4,9.6,10.7,9.5z"/>
		<path class="st6" d="M295.9,294.6c0,0.3,0,0.5,0,0.9c-0.4,0-0.4,0-0.9,0C295.5,295,295.5,295,295.9,294.6z"/>
		<path class="st5" d="M182.5,9.5c-0.8,0-0.8,0-1.4,0C181.6,9.5,182,9.5,182.5,9.5z"/>
		<path class="st5" d="M176.3,9.5c-0.8,0-0.8,0-1.4,0C175.4,9.5,175.9,9.5,176.3,9.5z"/>
		<path class="st4" d="M157.9,9.5c-0.8,0-0.8,0-1.4,0C156.9,9.5,157.4,9.5,157.9,9.5z"/>
		<path class="st4" d="M154,9.5c-0.8,0-0.8,0-1.4,0C153.3,9.5,153.3,9.5,154,9.5z"/>
		<path class="st4" d="M291.9,9.5c-0.4,0-0.8,0-1.1,0C291.4,9.5,291.4,9.5,291.9,9.5z"/>
		<path class="st4" d="M278.3,295.5c-0.5,0-0.5,0-1.1,0C277.5,295.5,277.9,295.5,278.3,295.5z"/>
		<path class="st4" d="M276,295.5c-0.5,0-0.5,0-1.1,0C275.2,295.5,275.6,295.5,276,295.5z"/>
		<path class="st5" d="M184.7,9.5c-0.4,0-0.8,0-1.1,0C184.1,9.5,184.1,9.5,184.7,9.5z"/>
		<path class="st4" d="M75.3,9.5c-0.4,0-0.8,0-1.1,0C74.6,9.5,74.6,9.5,75.3,9.5z"/>
		<path class="st4" d="M92.2,9.5c-0.4,0-0.8,0-1.1,0C91.7,9.5,91.7,9.5,92.2,9.5z"/>
		<path class="st5" d="M193.3,9.5c-0.3,0-0.5,0-0.9,0C193,9.5,193,9.5,193.3,9.5z"/>
		<path class="st4" d="M53.4,9.5c-0.3,0-0.5,0-0.9,0C53,9.5,53,9.5,53.4,9.5z"/>
		<path class="st5" d="M198.4,9.5c-0.3,0-0.5,0-0.9,0C198,9.5,198,9.5,198.4,9.5z"/>
		<path class="st5" d="M241.4,9.5c-0.3,0-0.5,0-0.9,0C241,9.5,241,9.5,241.4,9.5z"/>
		<path class="st4" d="M280.8,9.5c-0.3,0-0.5,0-0.9,0C280.3,9.5,280.3,9.5,280.8,9.5z"/>
		<path class="st4" d="M289.2,9.5c-0.3,0-0.5,0-0.9,0C288.8,9.5,288.8,9.5,289.2,9.5z"/>
		<path class="st4" d="M61.9,9.5c-0.3,0-0.5,0-0.9,0C61.4,9.5,61.4,9.5,61.9,9.5z"/>
		<path class="st5" d="M195,9.5c-0.3,0-0.5,0-0.9,0C194.6,9.5,194.6,9.5,195,9.5z"/>
		<path class="st7" d="M139.9,50.8c8.3-0.5,18.2-0.5,26.5,0c0,0,1,0.5,1.1,0.5c26.8,1.8,53.5,6.1,71.3,28.3
			c17.1,21.2,24.5,54.5,23.1,81.3c-1.3,25-12.5,57.4-32.5,73.6c-23.5,19.1-67.1,20.9-96.1,19c-0.3-0.1-0.5-0.5-0.5-0.5
			c-28.7-2.9-52.5-9.1-69.7-33.9c-4.9-7.1-10.5-18.5-13.1-26.5c-8.7-26.9-8.2-54.9,0.9-81.5c5.6-16.6,16.8-35.8,31.7-45.4
			c15.5-10,38.4-13.5,56.6-14.3C139.5,51.2,139.9,50.8,139.9,50.8z"/>
		
			<linearGradient id="SVGID_1_" gradientUnits="userSpaceOnUse" x1="98.0481" y1="855.2899" x2="104.9884" y2="991.1198" gradientTransform="matrix(1 0 0 1 0 -774)">
			<stop  offset="0" style="stop-color:#F6DCDF"/>
			<stop  offset="1" style="stop-color:#F3BAC9"/>
		</linearGradient>
		<path class="st8" d="M109.5,76.8c-2.3,3.4-3.2,7.8,0.3,10.9c-0.8,0.1-1.8,0.4-2.5,0.5c-0.3,0.1-0.5,0.1-1.1,0.3
			c-12.1,4.2-11.8,21.2,2.8,20c-1.3,10.5,6.6,14.8,15.9,11.6c0,1,0.4,2.1,0.5,3c2.3,14.5,12.4,21.6,24.9,27.7
			c1,18.2-3.9,36.2-19.8,46.6c-11,7.2-26.5,11.1-30.5,25.4c-2.9-2.1-11.6-8.3-13.1-11c-1-1.9,2.9-2.1,1.9-6.4
			c-0.6-3.3-7.7-5.9-9.7,0c-1.3,3.7,0,7.6-0.5,11.3c-1.6-1.9-5.4-5.3-7.6-8c-21.7-27.6-22.9-73.1-6.2-103.3
			c5.4-10,11.9-16.8,19.8-24.8c-0.9,4.6-10.9,15.9-3.5,19.2C89.4,103.8,87,91,97.8,82C100.4,80,109.5,74.4,109.5,76.8z"/>
		
			<linearGradient id="SVGID_00000116229432203231115290000018199555902065043878_" gradientUnits="userSpaceOnUse" x1="197.222" y1="839.4116" x2="189.6417" y2="984.1571" gradientTransform="matrix(1 0 0 1 0 -774)">
			<stop  offset="0" style="stop-color:#F7DDE0"/>
			<stop  offset="1" style="stop-color:#F3BDCB"/>
		</linearGradient>
		<path style="display:inline;fill:url(#SVGID_00000116229432203231115290000018199555902065043878_);" d="M226.6,86.6
			c11.5,11.9,17.3,23.1,21.5,39.2c7.6,29.3,3,71.2-21.5,91.8c1.1-3.7,1.1-13.7-0.9-16.9c-3.7-5.8-13.3-0.3-7.6,6.7
			c-1.6,4-5.3,6.6-8.1,9.6c-3-11.9-19-11.3-28.8-15.9c-4-1.9-7.2-5.3-7.8-9.9c-0.8-5.7,0.9-25.2,4.2-29.7c0.5-0.6,1-1.1,1.5-1.6
			c0.8-0.1,1,0.3,1.3,0.3c11,0.4,23.5,8.1,19.6-6.7c0.6-0.5,1.3-0.9,1.9-1.4c5.3-3.8,0.9-2.8,0.3-4.8c0-0.1,0-0.4,0-0.5
			c0.5-0.4,3-2.3,3-2.7c0-0.5-1.4-1.6-1.6-2.1c-0.8-1-1.5-2-2.3-3c2.9-2.4,5.6-2.4,4.8-5.1c-0.6-1.8-5.9-5.8-7.2-7.7
			c-5.4-7.8,1.8-22.9-15.9-32.5c0.8-2.1-8.2-6.3-10.2-7c-4-1.4-11-2.9-15.2-3c-1.4-0.1-3.3-0.1-4.8,0c-0.5-0.8,1.4-2.8,1.6-4
			c1.6-9.1-7.3-16.3-15.9-15.5c0.5-0.9,7.5-2.4,8.8-2.5c17.4-2,40.3,4.9,54.5,15.4c5.3,3.9,17.3,14.4,15.2,21.4
			c2.7,3.9,8,3.2,9.5-1.1C228.6,91.5,224.7,86.6,226.6,86.6z"/>
		<path class="st10" d="M226.6,86.6c-1.9,0,2,4.9,0,10.5c-1.5,4.2-6.8,4.9-9.5,1.1c2-7-10-17.4-15.2-21.4
			c-14.2-10.5-37-17.4-54.5-15.4c-1.4,0.1-8.2,1.6-8.8,2.5c-4,0.4-10.4,3.3-12.9,6.7c-2.7,0.9-2.3-0.8-6.7,0
			c-1.1,0.1-0.8,0.3-0.9,0.3c-3,0.8-6.6,2.9-8.6,5.8c0-2.4-9.1,3.3-11.6,5.3c-10.7,9.1-8.2,21.7-16.8,17.8
			c-7.3-3.4,2.7-14.7,3.5-19.2c4.8-4.8,9.2-9.6,14.9-13.4c24.8-16.9,62.4-19.2,89.9-7.8C204,65.4,216,75.4,226.6,86.6z"/>
	</g>
	<g>
		<g>
			<path class="st11" d="M183,93.5c-9.5,9.6-17.2,20.5-24.1,31.9c-0.9-0.5-1.9-0.5-2.9-0.5c-0.9-0.1-6.7-2.1-7.6,3
				c-0.5,3.5,4.8,10.7,7.6,13.1c0.1,0.1,0.4,0.5,0.9,0.9c-0.6,0.5-1,2.3-1.1,3c-0.5-0.4-0.1-1.8-1.1-0.9c-3.4,0.6-2.5,1.5-1.9,2.8
				c-1.1,1.9-1.1,1.9-2.3,3.9c-12.5-6.1-22.5-13-24.9-27.7c-0.3-4.8,1-3.2,1.1-3.8c0.5-2.1,0.5-4.6,1.1-6.7c6.2-13,8.7-22,23.6-26.9
				c1.6-0.5,5.2-0.1,6.3-2.3c4.3,0.3,11.1,1.6,15.2,3C174.9,87.3,183.9,91.5,183,93.5z"/>
			<path class="st11" d="M152.9,83.5c1.4-0.1,3.3-0.1,4.8,0c-1.1,2.1-4.7,1.6-6.3,2.3c-14.9,4.9-17.4,13.9-23.6,26.9
				c-0.6,2.1-0.6,4.6-1.1,6.7c-0.1,0.6-1.4-1-1.1,3.8c-0.1-1-0.5-2.1-0.5-3c-0.1-1.9,0-3.7,0.3-5.6c0.1-0.5,0.1-1.1,0.3-1.6
				c0.9-4.6,5.9-16.3,9-20C139.1,87.1,145.4,83.9,152.9,83.5z"/>
		</g>
		<g>
			<path class="st12" d="M181.3,201.1c9.9,4.7,25.8,4,28.8,15.9c-8.7,9.6-13.9,14.5-26.7,19.2c-20.5,7.5-42.3,6.4-62.4-1.4
				c0.8,0.5,0.1-1.6-0.5-3.5c-1.1-3.2-2.9-6.2-4-9.4c-0.3,0.1-0.3,0.1-0.4,0.1c1.4,5.9,1.4,5.9,2.8,11.9
				c-9.9-4.2-10.6-5.2-18.7-11.1c3.9-14.3,19.5-18.2,30.5-25.4c-0.4,21,17.2,30.5,36.4,28.8C182.7,224.8,189.4,215.7,181.3,201.1z"
				/>
			<path class="st13" d="M121,234.8c-0.8-0.3-1.5-0.5-2.3-0.9c-1.4-5.9-1.4-5.9-2.8-11.9c0.3-0.1,0.3-0.1,0.4-0.1
				c1.1,3.2,2.9,6.2,4,9.4C121.2,233.2,121.8,235.5,121,234.8z"/>
		</g>
		<path class="st14" d="M154,148.9c-0.5-0.6-1.1-1.3-1.4-1.9c-0.6-1.4-1.4-2.1,1.9-2.8C153,146.1,152.9,146.5,154,148.9z"/>
		<g>
			
				<linearGradient id="SVGID_00000019639695547006224790000009687521785296403640_" gradientUnits="userSpaceOnUse" x1="115.2088" y1="861.8099" x2="124.921" y2="881.62" gradientTransform="matrix(1 0 0 1 0 -774)">
				<stop  offset="0" style="stop-color:#EA799D"/>
				<stop  offset="1" style="stop-color:#BB2B62"/>
			</linearGradient>
			<path style="fill:url(#SVGID_00000019639695547006224790000009687521785296403640_);" d="M112.9,87.1c5.3,0.6,1.4,3.7,4.2,3.7
				c1.1,2.4,5.3,6.4,6.6,6.7c3.5,0.8,5.9-1.6,8.8-3c-3.5,5.4-5.2,12.6-8.1,18.5c-5.8-0.9-14.2-6.2-16.8-11.8
				c-1.8-3.9-2.7-9.1-0.3-12.9c0.8-0.3,1.8-0.4,2.5-0.5c0.4,0,0.5-0.4,0.8-0.5C111.3,87.2,112.2,87.1,112.9,87.1z"/>
			<g>
				
					<linearGradient id="SVGID_00000133503173840865277590000014770345142145012139_" gradientUnits="userSpaceOnUse" x1="102.4574" y1="870.3674" x2="119.3993" y2="892.9195" gradientTransform="matrix(1 0 0 1 0 -774)">
					<stop  offset="0" style="stop-color:#E26B98"/>
					<stop  offset="1" style="stop-color:#C03469"/>
				</linearGradient>
				<path style="fill:url(#SVGID_00000133503173840865277590000014770345142145012139_);" d="M106.2,88.6c-2.5,4.6-0.6,7.3-0.3,11.6
					c0.4,0.6,0.4,0.6,0.9,1.3c4.2,8.7,9.5,10.7,18.5,13.1c-0.3,1.9-0.4,3.7-0.3,5.6c-9.4,3.2-17.2-1.1-15.9-11.6
					C94.5,109.7,94,92.6,106.2,88.6z"/>
				<path class="st13" d="M107.4,88.2c-2.4,3.8-1.5,9,0.3,12.9c-0.4,0.1-0.4,0.1-0.9,0.3c-0.4-0.6-0.4-0.6-0.9-1.3
					c-0.4-4.3-2.3-7.1,0.3-11.6C106.7,88.3,107.1,88.3,107.4,88.2z"/>
			</g>
			
				<linearGradient id="SVGID_00000152257441257730838710000007782171910594723498_" gradientUnits="userSpaceOnUse" x1="135.386" y1="840.771" x2="137.806" y2="857.3519" gradientTransform="matrix(1 0 0 1 0 -774)">
				<stop  offset="0" style="stop-color:#EC82A2"/>
				<stop  offset="1" style="stop-color:#CD4479"/>
			</linearGradient>
			<path style="fill:url(#SVGID_00000152257441257730838710000007782171910594723498_);" d="M152.9,83.5c-7.3,0.4-13.8,3.5-18.5,9.4
				c-2.9,3.7-8.1,15.4-9,20c-0.4,0-0.8,0-1.1,0c2.9-5.8,4.6-13,8.1-18.5c1.1-1.8,3-3.4,4.4-4.9c-0.9-3.2-5.2-9.4-8.3-10.2
				c0.8-1.3-2-0.4-2.4-0.5c-0.8-0.3-2.1-4.7-2.1-5.4c0-0.1,1.4-2.3,1.6-2.7c2.4-3.4,8.8-6.3,12.9-6.7c8.6-0.8,17.6,6.4,15.9,15.5
				C154.3,80.7,152.4,82.8,152.9,83.5z"/>
			<path class="st12" d="M125.8,70.6c-0.3,0.4-1.6,2.5-1.6,2.7c-0.1,0.9,1.4,5.2,2.1,5.4c0.4,0.1,3-0.8,2.4,0.5
				c-1.4-0.4-2.5-0.4-3.9,0c-1-2-2.3-4.2-3.7-6.1c-1-1.4-2.5-2.3-1.9-2.7C123.6,69.9,123.2,71.5,125.8,70.6z"/>
			
				<linearGradient id="SVGID_00000075140988662145640820000011109476402323696315_" gradientUnits="userSpaceOnUse" x1="124.332" y1="856.1756" x2="127.9449" y2="867.3349" gradientTransform="matrix(1 0 0 1 0 -774)">
				<stop  offset="0" style="stop-color:#E9799D"/>
				<stop  offset="1" style="stop-color:#CE447D"/>
			</linearGradient>
			<path style="fill:url(#SVGID_00000075140988662145640820000011109476402323696315_);" d="M128.6,79.4c3.2,0.9,7.5,7.1,8.3,10.2
				c-1.5,1.5-3.3,3.2-4.4,4.9c-2.8,1.4-5.3,3.9-8.8,3c-1.3-0.3-5.4-4.3-6.6-6.7c-1.3-2.7-1.5-3.8-0.9-7c0.9-0.6,3.5-1.9,4.8-2.5
				c1.1-0.5,2.5-1.6,3.7-1.9C126.1,79,127.1,79,128.6,79.4z"/>
			<path class="st19" d="M107.6,101.1c2.5,5.4,11,10.9,16.8,11.8c0.4,0,0.8,0,1.1,0c-0.1,0.5-0.3,1.1-0.3,1.6
				c-9-2.4-14.3-4.4-18.5-13.1C107.3,101.2,107.3,101.2,107.6,101.1z"/>
			<g>
				<path class="st12" d="M118.2,70.9c1.4,3.3,2.8,6.7,2.8,10.4c-1.1,0.5-3.8,1.8-4.8,2.5c-1.3,0.9-2,2.4-3.4,3.4
					c-0.8-0.1-1.6,0.1-2.4,0c-0.3,0.1-0.4,0.5-0.8,0.5c-3.4-3-2.5-7.5-0.3-10.9C111.5,73.8,115.2,71.8,118.2,70.9z"/>
				<path class="st20" d="M119.1,70.6c-0.5,0.4,0.9,1.3,1.9,2.7c1.3,1.8,2.7,4,3.7,6.1c-1.1,0.3-2.5,1.4-3.7,1.9
					c0-3.7-1.4-7-2.8-10.4C118.2,70.9,118,70.9,119.1,70.6z"/>
				<path class="st20" d="M117.1,90.7c-2.9,0,1.1-3-4.2-3.7c1.3-0.9,2.1-2.4,3.4-3.4C115.6,86.9,115.8,88.1,117.1,90.7z"/>
			</g>
		</g>
		<g>
			
				<linearGradient id="SVGID_00000110451948033732450930000004533088475294237845_" gradientUnits="userSpaceOnUse" x1="177.822" y1="953.9244" x2="130.6267" y2="967.6564" gradientTransform="matrix(1 0 0 1 0 -774)">
				<stop  offset="0" style="stop-color:#8D2133"/>
				<stop  offset="0.7557" style="stop-color:#C65660"/>
			</linearGradient>
			<path style="fill:url(#SVGID_00000110451948033732450930000004533088475294237845_);" d="M177.7,161.4c-3.3,4.6-4.9,24-4.2,29.7
				c0.6,4.6,3.8,8,7.8,9.9c8,14.7,1.3,23.8-14.4,25.2c-19.3,1.8-36.8-7.7-36.4-28.8c15.9-10.5,20.9-28.4,19.8-46.6
				c1.1-1.9,1.1-1.9,2.3-3.9c0.3,0.6,0.9,1.4,1.4,1.9c1.1,1.4,1.4,1.8,3,2.3c0.4,0.1,0.5,0.6,1,0.5c0.5-0.1,0-1.8,1-1.6
				c0.1,0.3,0.4,0.9,0.5,0.3c0.4-2,0.8-4,1.1-6.2c0-0.1-0.3-1.4,0.4-2.8c1.1,2,1.1,4.6,1.8,6.8C167.5,154.2,170.7,157.7,177.7,161.4
				z"/>
			<path class="st22" d="M198.1,145.5c1.4,0.1,2.8,0.9,4.2,1.1c0,0.1,0,0.4,0,0.5c-1.8,0.6-1.8,0.6-3.7,1.3c1.6,1.8,1.6,1.8,3.4,3.5
				c-0.6,0.5-1.4,0.9-1.9,1.4c-0.3-0.8-2.9-6.4-3.9-7.7C196.1,144.8,197,145.3,198.1,145.5z"/>
			<path class="st23" d="M203.7,141.8c0.4,0.5,1.8,1.6,1.6,2.1c0,0.4-2.7,2.3-3,2.7c-1.4-0.3-2.8-0.9-4.2-1.1
				C200.9,143.7,200.9,143.7,203.7,141.8z"/>
			<path class="st13" d="M202.3,147.1c0.6,2,5.1,1-0.3,4.8c-1.6-1.8-1.6-1.8-3.4-3.5C200.5,147.7,200.5,147.7,202.3,147.1z"/>
			<path class="st19" d="M158.7,141.8c-0.1,0.3-1,3.4-0.9,4.9c0,0.1,1,3,1.1,3.2c-1-0.1-0.4,1.6-1,1.6c-0.5,0.1-0.5-0.5-1-0.5
				c-1.6-2.1-1.8-3.5-1.4-6.2c0.1-0.9,0.5-2.5,1.1-3C157.4,141.3,158.1,141.9,158.7,141.8z"/>
			<path class="st24" d="M155.7,145c-0.4,2.5-0.3,4,1.4,6.2c-1.6-0.4-1.9-0.9-3-2.3c-1-2.4-1-2.8,0.5-4.8
				C155.5,143.2,155.2,144.5,155.7,145z"/>
			<path class="st25" d="M157.9,138.5c0.1,0,2.8,0.4,3,0.5c0,0,0,0.1,0.3,0.3c-0.4,1.9-1.8,1.4-2.5,2.5c-0.6,0-1.4-0.5-1.9,0
				c-0.5-0.4-0.8-0.8-0.9-0.9c0.1-0.6-0.1-1.8,0-2.1C156.2,138.3,157.3,138.5,157.9,138.5z"/>
			<g>
				<path class="st26" d="M201.4,138.8c-0.1-0.1-1.5-1.4-1.4-1.8c3-1.6,3-1.6,6.2-3.2C207.1,136.4,204.5,136.4,201.4,138.8z"/>
				<path class="st23" d="M153.6,126.3c0.1,0.1,2.1,1.5,2.3,2.1c0.3,2.5,0.3,3.9,1.4,6.3c0.3,0.6,0.4,1.1,0.9,1.6
					c-0.1,0.8,0.3,1.5-0.3,2.3c-0.5,0-1.6-0.3-1.9,0.4c-0.1,0.3,0.1,1.5,0,2.1c-2.7-2.4-8.1-9.6-7.6-13.1
					C150.9,127.1,150.9,124.9,153.6,126.3z"/>
				<path class="st27" d="M155.9,124.9c-0.1,0.3-0.4,0.6-0.5,0.9c-0.6,0.5-0.9,0.5-1.6,0.5c-2.9-1.4-2.9,0.9-5.3,1.6
					C149.2,122.7,155.2,124.7,155.9,124.9z"/>
				<path class="st28" d="M157.3,134.6c-1.1-2.4-1.1-3.7-1.4-6.3c-0.1-0.5-2.1-2-2.3-2.1c0.8,0,1.1,0,1.6-0.5
					C158.3,129.2,157.3,130.5,157.3,134.6z"/>
				<g>
					
						<linearGradient id="SVGID_00000047742745742689079290000015913338101865102265_" gradientUnits="userSpaceOnUse" x1="201.003" y1="894.6121" x2="166.4051" y2="918.7232" gradientTransform="matrix(1 0 0 1 0 -774)">
						<stop  offset="0.2318" style="stop-color:#D88685"/>
						<stop  offset="1" style="stop-color:#AC3549"/>
					</linearGradient>
					<path style="fill:url(#SVGID_00000047742745742689079290000015913338101865102265_);" d="M206.2,133.7c-3,1.6-3,1.6-6.2,3.2
						c-0.1,0.5,1.3,1.6,1.4,1.8c0.8,1,1.5,2,2.3,3c-2.8,1.8-2.8,1.8-5.6,3.7c-1.1-0.1-2-0.6-1.9,0.1c0.9,1.3,3.7,6.8,3.9,7.7
						c4,14.8-8.6,7.1-19.6,6.7c-0.3-2.4-3.2-2.1-7.5-4.4c-10.2-5.8-10-14.8-11.9-16.2C161,139,161,139,161,139
						c0.9-0.5-1.4-2.8-1.9-4.6c0.1,0.5-0.8,1.8-0.9,1.8c-0.5-0.5-0.5-1-0.9-1.6c0-4,1-5.4-1.9-9c0.1-0.1,0.4-0.6,0.5-0.9
						c1,0.1,2,0.1,2.9,0.5c7.1-11.4,14.8-22.2,24.1-31.9c17.7,9.6,10.5,24.6,15.9,32.5C200.3,128,205.6,131.9,206.2,133.7z"/>
					<path class="st30" d="M196,121.7c1.4,0.3-2.3,6.3-8.6,4.4c-1.1-0.4-2.9-2-3.8-2.9c0.1-0.3,0.1-0.3,0.1-0.4
						C187.9,125.7,192.2,124.5,196,121.7z"/>
					<path class="st24" d="M188.5,114.2c4-0.6,7.7,1.5,6.6,3.5c-0.5,0.8-3.7-2.9-9.9-0.8c-0.8,0.3-5.1,2.9-0.5-0.9
						C185,115.8,187.9,114.2,188.5,114.2z"/>
					<path class="st22" d="M161,139c-0.3-0.1-2.9-0.5-3-0.5c0.5-0.6,0.1-1.5,0.3-2.3c0-0.1,0.9-1.3,0.9-1.8
						C159.6,136.2,161.9,138.5,161,139z"/>
				</g>
			</g>
			<g>
				<path class="st28" d="M180.6,160c-0.3,0-0.5-0.4-1.3-0.3c-0.5,0.5-1.1,1-1.5,1.6c-7-3.7-10.1-7.2-14.8-13.3
					c-0.8-2.3-0.8-4.8-1.8-6.8c-0.8,1.4-0.4,2.7-0.4,2.8c-1.3,0.3-1.6,4.6-1.1,6.2c-0.1,0.6-0.4,0-0.5-0.3s-1.1-3-1.1-3.2
					c-0.1-1.5,0.6-4.7,0.9-4.9c0.8-1.1,2.1-0.6,2.5-2.5c1.9,1.4,1.6,10.5,11.9,16.2C177.3,157.9,180.3,157.6,180.6,160z"/>
				<path class="st19" d="M160.7,144.1c-0.4,2-0.8,4-1.1,6.2C159.1,148.6,159.5,144.3,160.7,144.1z"/>
				<path class="st31" d="M159.7,141.5c0.4,0.3,0.1,2.3-0.3,0.9C159.2,141.8,159.7,141.5,159.7,141.5z"/>
			</g>
		</g>
	</g>
</g>
</svg>
